<svg width="32" height="32" viewBox="0 0 32 32" fill="none" xmlns="http://www.w3.org/2000/svg">
<path d="M19.3333 9.33333C21.1743 9.33333 22.6667 7.84093 22.6667 6C22.6667 4.15905 21.1743 2.66667 19.3333 2.66667C17.4924 2.66667 16 4.15905 16 6C16 7.84093 17.4924 9.33333 19.3333 9.33333Z" stroke="#FAFCFA" stroke-width="2" stroke-miterlimit="2"/>
<path d="M12.6667 30.6667C13.7713 30.6667 14.6667 29.7713 14.6667 28.6667C14.6667 27.5621 13.7713 26.6667 12.6667 26.6667C11.5621 26.6667 10.6667 27.5621 10.6667 28.6667C10.6667 29.7713 11.5621 30.6667 12.6667 30.6667Z" fill="#FAFCFA"/>
<path d="M16.2533 12.6068L13.3333 18.0001L18.2066 22.0135C18.4133 22.1735 18.56 22.3935 18.6466 22.6401L20.6666 29.3335" stroke="#FAFCFA" stroke-width="2" stroke-miterlimit="2" stroke-linecap="round" stroke-linejoin="round"/>
<path d="M13.3334 18L9.67335 23.0933C9.31335 23.62 8.63335 23.82 8.04669 23.5733L2.66669 21.3333" stroke="#FAFCFA" stroke-width="2" stroke-miterlimit="2" stroke-linecap="round" stroke-linejoin="round"/>
<path d="M28 15.9999H23.3334C23.0934 15.9999 22.8534 15.9399 22.64 15.8199L20.5 14.6133C17.8267 13.0466 14.9 11.9733 11.8534 11.4266L9.70669 11.0466C9.40669 10.9933 9.09335 11.0466 8.82669 11.1933L4.66669 13.3333" stroke="#FAFCFA" stroke-width="2" stroke-miterlimit="2" stroke-linecap="round" stroke-linejoin="round"/>
</svg>
